<?xml version="1.0" encoding="utf-8"?>
<!-- Generator: Adobe Illustrator 24.1.1, SVG Export Plug-In . SVG Version: 6.00 Build 0)  -->
<svg version="1.1" id="Layer_1" xmlns="http://www.w3.org/2000/svg" xmlns:xlink="http://www.w3.org/1999/xlink" x="0px" y="0px"
	 viewBox="0 0 1920 330.7" style="enable-background:new 0 0 1920 330.7;" xml:space="preserve">
<style type="text/css">
	.st0{opacity:0.88; fill: #FFFFFF;} /* Tambahkan fill putih di sini */
</style>
<g class="st0">
	<path d="M444.8,325.3l117.4-317h31.7l118.8,317h-21.9l-33.5-88.9H499.3l-33,88.9H444.8z M506.4,216.9h143.8L580.6,31.1
		c-1-2.6-1.9-5.3-2.7-8c-0.8,2.7-1.7,5.4-2.7,8L506.4,216.9z"/>
	<path d="M848.9,325.3V8.4h21.4l121.4,291.1l121-291.1h21.9v316.9h-21.4V151.7c0-51.8,0.9-78.6,2.2-99.6l-113,273.2h-21.4
		l-113-271.8c0.9,8.9,2.2,46,2.2,98.2v173.6H848.9z"/>
	<path d="M1433.8,330.7c-88,0-149.6-67.9-149.6-163.9S1346.3,3,1433.8,3c88,0,150,67.9,150,163.9
		C1583.8,262.9,1521.8,330.7,1433.8,330.7z M1433.8,23.5c-74.9,0-127.7,59-127.7,143.3s52.6,143.3,127.7,143.3
		c75.5,0,128.1-59,128.1-143.3S1509.2,23.5,1433.8,23.5z"/>
	<path d="M1733.4,325.3V8.4h186.2V28h-164.8v128.6h150v19.6h-150v129.5H1920v19.6H1733.4z"/>
</g>
<path fill="#FFFFFF" d="M257.5,209.4c2.1-0.7,4.2-1.5,6.2-2.3c33.7-14.1,56.8-45.7,60-82V89.1c-4.1-46.3-40-83.5-86.2-89.1H0v141.5h22.1
	c11.1,0,20.1,9.1,20.1,20.2c0,0,0,0,0,0l0,0c0,11.1-9,20.1-20.1,20.1H0v141.9h141.7v-22.3c0-11.1,9-20.1,20.1-20.1l0,0
	c11.1,0,20.2,8.9,20.2,20.1c0,0,0,0,0,0.1v22.3h141.7v-0.5L257.5,209.4z"/>
</svg>
